<?xml version="1.0" encoding="UTF-8"?>
<svg version="1.1" viewBox="0 0 1008 1000" width="252" height="251" xmlns="http://www.w3.org/2000/svg">
<path transform="translate(390,330)" d="m0 0h20l12 3 13 5 12 9 9 8 9 13 6 14 4 16v13l-6 21-8 15-9 11-11 9-16 8-17 4h-18l-15-4-12-5-10-7-10-9-7-9-8-16-4-16v-17l4-16 8-16 10-13 9-8 14-8 12-4z" fill="#279CF0"/>
<path transform="translate(396,529)" d="m0 0 14 1 17 4 12 6 9 7 6 5 9 12 7 15 5 23-1 10-4 17-4 9-7 12-14 14-14 8-16 5-10 2h-12l-17-4-13-5-11-8-10-9-7-10-6-12-5-21v-13l5-21 9-16 9-10 9-8 12-7 14-4z" fill="#279CF0"/>
<path transform="translate(596,529)" d="m0 0h14l12 2 13 5 11 7 11 9 8 10 6 10 5 14 1 8v19l-2 14-8 16-11 14-10 8-14 8-15 5-5 1h-18l-12-3-13-5-12-8-11-10-10-15-5-11-2-7-1-8v-18l4-16 6-12 9-12 8-8 14-9 11-5z" fill="#269CF0"/>
<path transform="translate(595,330)" d="m0 0h18l11 2 12 5 12 8 10 9 8 10 8 16 3 14v20l-2 13-8 16-8 11-9 9-13 8-11 5-12 3h-22l-15-4-14-7-12-9-9-11-8-14-4-10-2-11v-19l3-13 7-14 10-14 9-8 13-8 12-5z" fill="#269CF0"/>
<path transform="translate(195,147)" d="m0 0h22l13 4 12 7 12 11 6 10 5 11 2 9v17l-3 12-7 14-10 11-10 7-8 4-10 3-8 1h-11l-17-4-10-6-11-9-6-8-7-14-3-13v-15l4-15 6-11 11-12 10-7 14-6z" fill="#279CF0"/>
<path transform="translate(196,542)" d="m0 0h22l10 3 14 8 10 9 6 8 6 12 3 13v16l-3 12-8 15-8 9-13 9-9 4-8 2h-23l-11-3-11-6-11-9-7-10-5-10-3-9-1-7v-13l4-16 6-11 11-12 10-7 13-6z" fill="#423E3E"/>
<path transform="translate(788,733)" d="m0 0h13l13 3 14 7 10 9 8 10 6 13 2 8v21l-4 13-6 11-7 8-10 9-13 6-15 3h-9l-16-3-14-7-10-9-7-8-8-16-1-6v-24l4-12 7-12 12-12 12-7 13-4z" fill="#269CF0"/>
<path transform="translate(595,733)" d="m0 0h15l12 3 14 7 10 9 7 8 8 17 2 10v13l-3 13-8 16-6 7-11 9-12 6-15 3h-11l-15-3-14-7-12-11-7-10-6-15-1-7v-14l3-14 7-14 11-12 10-7 12-5z" fill="#423E3E"/>
<path transform="translate(593,147)" d="m0 0h19l13 4 11 6 10 8 8 10 7 15 2 9v16l-3 12-7 14-9 10-8 7-14 7-9 2h-22l-11-3-10-5-10-8-7-8-8-15-3-14v-13l3-14 7-14 11-12 10-7 12-5z" fill="#423E3E"/>
<path transform="translate(789,338)" d="m0 0h9l14 3 10 4 11 7 9 9 8 14 4 13v21l-4 13-7 13-4 5h-2l-1 3-11 8-11 5-12 3h-15l-15-4-14-7-8-7-8-11-7-14-1-5v-25l4-11 6-11 9-10 10-8 12-5z" fill="#423E3E"/>
<path transform="translate(786,542)" d="m0 0h18l13 4 11 6 10 9 7 8 7 15 2 8v21l-4 13-7 12-9 10-10 7-8 4-12 3h-20l-12-3-13-7-12-11-7-11-5-11-1-4v-25l3-10 8-14 5-6 11-9 15-7z" fill="#423E3E"/>
<path transform="translate(198,733)" d="m0 0h16l12 3 14 7 12 10 7 10 5 10 3 13v16l-3 12-8 15-8 9-11 8-11 5-15 3h-10l-14-3-14-7-10-9-7-8-6-11-3-10-1-7v-13l4-16 8-13 9-10 11-7 11-5z" fill="#279CF0"/>
<path transform="translate(392,733)" d="m0 0h12l11 2 14 6 9 7 5 5 6 7 7 14 2 8 1 13-2 16-8 16-8 10-10 8-13 6-16 3-15-1-13-4-11-6-12-11-8-13-4-11-1-4v-22l5-14 6-10 9-10 13-9 15-5z" fill="#423E3E"/>
<path transform="translate(390,147)" d="m0 0h17l11 3 16 8 14 14 6 10 4 13v24l-4 13-7 12-12 12-12 7-15 4h-19l-13-3-14-8-9-8-7-10-5-10-3-9v-23l5-14 6-10 9-10 11-8 12-5z" fill="#423E3E"/>
<path transform="translate(203,338)" d="m0 0 16 1 12 4 10 6 10 9 7 8 6 13 3 12v16l-3 12-8 15-8 9-11 8-8 4-15 4h-15l-15-4-11-6-11-9-9-13-5-12-2-11v-13l4-15 4-8 9-12 12-9 12-6 7-2z" fill="#433E3E"/>
<path transform="translate(783,147)" d="m0 0h21l10 3 15 8 12 11 7 11 4 9 2 9v19l-3 11-7 14-10 11-10 7-8 4-11 3h-23l-13-4-11-7-10-9-7-10-6-14-1-5v-20l3-12 7-13 9-10 12-9 12-5z" fill="#279CF0"/>
<path transform="translate(596,898)" d="m0 0h13l9 2 12 7 8 8 6 10 4 14v9l-5 15-6 9-7 7-14 7-4 1h-20l-11-4-11-8-7-10-5-12-1-3v-14l5-14 8-11 9-7 10-5z" fill="#279CF0"/>
<path transform="translate(392,898)" d="m0 0h13l10 2 12 8 8 8 7 14 2 9v9l-4 13-6 10-4 5-12 8-10 3-13 1-14-3-11-7-8-8-6-11-3-13 1-11 4-13 8-11 9-7 10-5z" fill="#279CF0"/>
<path transform="translate(50,354)" d="m0 0h15l11 3 10 7 7 7 5 8 4 16v9l-4 15-6 8-5 6-11 7-10 3h-19l-11-4-11-8-8-11-5-13v-16l5-14 6-8 10-9 12-5z" fill="#289CF0"/>
<path transform="translate(598,13)" d="m0 0h9l12 3 9 5 10 9 6 10 4 15v7l-4 14-6 10-8 8-12 6-9 3h-13l-13-4-9-6-5-5-5-6-6-13-1-4v-13l3-10 5-10 6-7 10-7 10-4z" fill="#289CF0"/>
<path transform="translate(50,558)" d="m0 0h15l13 4 10 7 7 8 5 11 2 10v10l-3 12-3 6-9 10-8 6-13 5h-18l-13-5-9-7-7-8-6-13-1-4v-16l4-11 7-11 7-6 8-5z" fill="#279CF0"/>
<path transform="translate(936,354)" d="m0 0h15l11 3 9 6 7 6 6 9 4 12v18l-4 11-6 9-8 8-12 6-4 1h-21l-11-4-9-7-7-8-5-10-2-10v-9l2-12 5-10 8-9 11-7z" fill="#279CF0"/>
<path transform="translate(392,13)" d="m0 0h12l9 2 10 5 10 9 6 10 4 10 1 11-2 11-6 12-9 10-10 6-14 4h-11l-15-5-10-7-8-11-4-9-2-9v-8l3-12 5-10 7-8 9-6 10-4z" fill="#289DF0"/>
<path transform="translate(937,558)" d="m0 0h14l13 4 11 8 7 9 5 11 1 4v18l-5 13-8 10-8 6-14 6-13 1-12-3-10-5-10-9-6-11-2-5-1-6v-12l2-10 5-10 9-10 10-6z" fill="#279CF0"/>
</svg>
